<svg id="Layer_1" data-name="Layer 1" xmlns="http://www.w3.org/2000/svg" viewBox="0 0 63.33 24.8"><defs><style>.cls-1{fill:#fff;}</style></defs><title>travelwth</title><path class="cls-1" d="M6.5,13c0,.64-.34,1-1,1H4.8l-.27,0c-.07.33-.13.63-.2.91l-.23,1a4.9,4.9,0,0,0-.19,1.28c0,.38.18.57.46.57a.48.48,0,0,0,.28-.14A2.9,2.9,0,0,0,5,17.22c.38-.41.62-.61.73-.61s.06,0,.06.1A2.16,2.16,0,0,1,5,18.13a2,2,0,0,1-1.38.77c-.93,0-1.4-.52-1.4-1.56,0-.11,0-.23,0-.37l.05-.38q.1-.57.15-.84c0-.24.14-.59.25-1.07S3,13.57,3.1,13.1a8,8,0,0,0,.17-1.35,1.53,1.53,0,0,0-.13-.66,2.57,2.57,0,0,1,1.3-.4.52.52,0,0,1,.58.59l-.15.94L4.73,13h.63a7.49,7.49,0,0,0,1.14-.09Z"/><path class="cls-1" d="M11.2,12.32c.33,0,.5.19.5.58a2.66,2.66,0,0,1-.83,1.7.52.52,0,0,0-.45-.3c-.43,0-.87.4-1.32,1.19a12.64,12.64,0,0,0-.61,1.26l-.62,1.5a1,1,0,0,1-1,.66A5.89,5.89,0,0,1,6,18.8c.22-.56.42-1.14.6-1.71s.31-1,.42-1.53a9.71,9.71,0,0,0,.32-2.1,2.08,2.08,0,0,0-.12-.79,3.5,3.5,0,0,1,1.26-.34.55.55,0,0,1,.63.61,5.07,5.07,0,0,1-.11.88l-.27,1.1A11.65,11.65,0,0,1,10,13a1.79,1.79,0,0,1,1.17-.71Z"/><path class="cls-1" d="M18.29,16.65s.06,0,.06.11a2.16,2.16,0,0,1-.74,1.42,2.06,2.06,0,0,1-1.39.76c-.71,0-1.06-.42-1.06-1.27a7,7,0,0,1,.06-1c-.91,1.47-1.76,2.22-2.57,2.26h-.13a1.13,1.13,0,0,1-1-.48,2.14,2.14,0,0,1-.29-1.21,5.7,5.7,0,0,1,1.19-3.35,4.53,4.53,0,0,1,1.2-1.16,2.57,2.57,0,0,1,1.4-.45,1.86,1.86,0,0,1,1.18.34,1,1,0,0,1,.75-.32,2.36,2.36,0,0,1,1.07.29,4.54,4.54,0,0,0-.37.86c-.13.38-.26.82-.38,1.32a10.73,10.73,0,0,0-.43,2.37.78.78,0,0,0,0,.16l.12.34a1.3,1.3,0,0,0,.58-.41C17.92,16.85,18.17,16.65,18.29,16.65Zm-3-1.46a11.58,11.58,0,0,0,.58-1.29.9.9,0,0,0-1-.69q-.69,0-1.32,1.35a5.88,5.88,0,0,0-.6,2.51c0,.42.16.63.4.63s.58-.37,1.08-1.11A11.5,11.5,0,0,0,15.28,15.19Z"/><path class="cls-1" d="M23,12.86a1.12,1.12,0,0,0-.28-.77,3.15,3.15,0,0,1,.44,0c.83,0,1.25.29,1.25.87a6.45,6.45,0,0,1-1.26,2.79c-.34.53-.64,1-.89,1.31a8.11,8.11,0,0,1-.88,1,2.7,2.7,0,0,1-1.86.92h-.13l-.13,0,0-.62a22.54,22.54,0,0,0-.38-3.86c-.16-1-.34-1.52-.55-1.68a2.57,2.57,0,0,1,1.34-.45c.53,0,.81.37.86,1.09.05.41.1.91.12,1.52s0,1,0,1.62V17c0,.16,0,.29,0,.41.33-.42.63-.86.92-1.31s.48-.77.7-1.18A4.36,4.36,0,0,0,23,12.86Z"/><path class="cls-1" d="M29.54,17a1,1,0,0,1,.11.43.82.82,0,0,1-.18.52,2.28,2.28,0,0,1-.9.65,4.54,4.54,0,0,1-1.9.41c-1.45,0-2.21-.62-2.27-1.85a4.41,4.41,0,0,1,1.21-3.34,3.63,3.63,0,0,1,2.9-1.48q1.44,0,1.44,1.14a2.42,2.42,0,0,1-1.1,2.05,4.28,4.28,0,0,1-2.64.71,3.75,3.75,0,0,0-.08.69,1.06,1.06,0,0,0,.13.58,1.14,1.14,0,0,0,1.16.54A3.54,3.54,0,0,0,29.54,17Zm-3.17-1.51a2.17,2.17,0,0,0,1.39-.39,1.59,1.59,0,0,0,.6-1.25c0-.47-.15-.71-.45-.71C27.25,13.1,26.74,13.89,26.37,15.45Z"/><path class="cls-1" d="M33,17.36l.69-.51a1,1,0,0,1,.39-.22c.09,0,0,.27-.38.83a3.3,3.3,0,0,1-1.15,1.06,2.45,2.45,0,0,1-1.19.4,1,1,0,0,1-1.06-1.09,5.73,5.73,0,0,1,.1-1,2.19,2.19,0,0,0,0-.31l-.47.33a.55.55,0,0,1-.18.1s0-.05.14-.16l.56-.5c.22-.92.46-1.87.72-2.86s.52-1.87.82-2.84a1,1,0,0,1,.4-.51A.87.87,0,0,1,33,9.91a1.94,1.94,0,0,1,1,.37.4.4,0,0,1,.1.18l0,.25v.38l0,.23a4.73,4.73,0,0,1-.2.81c-.08.24-.19.53-.34.88s-.21.44-.34.67-.22.39-.35.59-.2.32-.31.47l-.24.32-.17.8c0,.18-.08.34-.1.49s-.07.34-.09.47a2,2,0,0,0,0,.34.91.91,0,0,0,.13.5A1.61,1.61,0,0,0,33,17.36Zm-.21-3.88-.24.91c.15-.22.29-.45.42-.68s.3-.57.42-.85a8,8,0,0,0,.33-.84,4.11,4.11,0,0,0,.19-.75c0-.22,0-.37,0-.45a.1.1,0,0,0-.09-.11.1.1,0,0,0-.13,0,1.13,1.13,0,0,0-.09.2c-.21.55-.39,1.09-.54,1.63C32.93,12.86,32.84,13.16,32.74,13.48Z"/><path class="cls-1" d="M39.19,18.85a3.25,3.25,0,0,1-.76.07c0-.25,0-.48,0-.7v-.56c0-.34,0-.71,0-1.11l0-1.11a10.58,10.58,0,0,1-1.94,3,1.41,1.41,0,0,1-.71.39,3.4,3.4,0,0,1-.85.09,5.91,5.91,0,0,0,.06-.7c0-.23,0-.53,0-.88s0-1,0-1.54,0-1.07-.08-1.47a4,4,0,0,0-.18-1,2.5,2.5,0,0,0-.3-.64,2.63,2.63,0,0,1,1.21-.4.61.61,0,0,1,.62.39,4.72,4.72,0,0,1,.18,1.21c0,.62.07,1.43.07,2.41v.56a8.38,8.38,0,0,0,1.39-2.22A4.35,4.35,0,0,0,38.24,13a.92.92,0,0,0,0-.32,2.52,2.52,0,0,1,1-.24c.29,0,.48.2.56.58a5.21,5.21,0,0,1,.08.72v2.19c0,.52,0,1,0,1.43a10.24,10.24,0,0,0,1.26-2.19,5.34,5.34,0,0,0,.54-2,1.81,1.81,0,0,0-.09-.55,1.31,1.31,0,0,0-.33-.54,2.12,2.12,0,0,1,.44,0c.92,0,1.38.31,1.38.91a8.06,8.06,0,0,1-1.28,3.17,11.07,11.07,0,0,1-1.25,1.79A2.87,2.87,0,0,1,39.19,18.85Z"/><path class="cls-1" d="M47.39,13c0,.64-.34,1-1,1H45.7l-.28,0c-.06.33-.13.63-.2.91s-.15.66-.23,1a4.9,4.9,0,0,0-.19,1.28c0,.38.18.57.46.57a.48.48,0,0,0,.28-.14,2.9,2.9,0,0,0,.34-.31c.38-.41.63-.61.73-.61s.06,0,.06.1a2.16,2.16,0,0,1-.74,1.42,2,2,0,0,1-1.38.77c-.93,0-1.4-.52-1.4-1.56a2.62,2.62,0,0,1,0-.37l0-.38c.07-.38.12-.66.16-.84s.13-.59.24-1.07.28-1.11.37-1.58a7.07,7.07,0,0,0,.17-1.35,1.53,1.53,0,0,0-.13-.66,2.6,2.6,0,0,1,1.3-.4.52.52,0,0,1,.58.59l-.14.94-.14.78h.62a7.3,7.3,0,0,0,1.14-.09Z"/><path class="cls-1" d="M50.94,13.21a2.54,2.54,0,0,1,1.67-.82c.56,0,.84.33.84,1a4.44,4.44,0,0,1-.09.76L53,15.6c0,.19-.07.36-.1.52a6.6,6.6,0,0,0-.09,1,1.06,1.06,0,0,0,0,.31l.1.21a.93.93,0,0,0,.25-.14,1.81,1.81,0,0,0,.34-.28q.57-.6.72-.6c.05,0,.07,0,.07.1a2.14,2.14,0,0,1-.75,1.41,2,2,0,0,1-1.38.77q-1.08,0-1.08-1.26c0-.1,0-.2,0-.31a3,3,0,0,1,0-.42,6.7,6.7,0,0,1,.19-1,10,10,0,0,0,.24-1,3.84,3.84,0,0,0,.07-.7.61.61,0,0,0,0-.24c0-.08-.08-.13-.14-.13-.27,0-.66.41-1.17,1.22a22.1,22.1,0,0,0-1.59,3.2,1,1,0,0,1-1,.65,5.79,5.79,0,0,1-.92-.1A28.86,28.86,0,0,0,48,15c.28-1.24.51-2.57.7-4V10.9a1.44,1.44,0,0,0-.14-.55A2.73,2.73,0,0,1,49.83,10q.6,0,.6.57a.28.28,0,0,1,0,.1c0,.21-.1.72-.26,1.52-.09.45-.19.9-.29,1.36s-.24,1.07-.37,1.57A7.24,7.24,0,0,1,50.94,13.21Z"/><path class="cls-1" d="M61.32,13.36A11.4,11.4,0,0,0,57.48,12c-2.34-.44-3-.73-3.53-1.25s-.5-1.19-1.75-1.47-2.63-.64-2.63-.64-.3-.06.4,0S52.22,9,52.22,9a2.41,2.41,0,0,1,1.36-.27c.62.13.86.59,1.19.22s.48-1,.06-2a2.44,2.44,0,0,1,.35-2.85,11.08,11.08,0,0,1,2.41-1.38,10.21,10.21,0,0,1,0,1.69,11.88,11.88,0,0,0,0,1.81,18.91,18.91,0,0,1,5.78-1.84S60.53,7.57,60,8.45s-1.4,1.74-1,2.41a4.22,4.22,0,0,0,1.8,1.84l.81.44-.26,0Z"/></svg>